# xmcd
#
# Track frame offsets: 
#        150
#        13540
#        27005
#        39642
#        52310
#        69700
#        82165
#        95695
#        107275
#        120600
#
# Disc length: 1755 seconds
#
# Revision: 2
# Processed by: cddbd v1.4PL0 Copyright (c) Steve Scherf et al.
# Submitted via: ExactAudioCopy v0.90b4
#
DISCID=8206d90a
DTITLE=Anita Perras - Touch My Heart
DYEAR=1900
DGENRE=Country
TTITLE0=Hello Again
TTITLE1=Here Comes My Baby
TTITLE2=The Tips Of My Fingers
TTITLE3=Touch My Heart
TTITLE4=I've Found Someone Too
TTITLE5=One Smokey Rose
TTITLE6=How's A Girl To Know
TTITLE7=Mutual Acquaintance
TTITLE8=Heads You Win (Tails I Lose)
TTITLE9=After All
EXTD=
EXTT0=
EXTT1=
EXTT2=
EXTT3=
EXTT4=
EXTT5=
EXTT6=
EXTT7=
EXTT8=
EXTT9=
PLAYORDER=
